<svg width="20" height="20" viewBox="0 0 20 20" fill="none" xmlns="http://www.w3.org/2000/svg">
<path d="M10.1334 9.05833C10.05 9.05 9.95005 9.05 9.85838 9.05833C7.87505 8.99166 6.30005 7.36666 6.30005 5.36666C6.30005 3.325 7.95005 1.66666 10 1.66666C12.0417 1.66666 13.7 3.325 13.7 5.36666C13.6917 7.36666 12.1167 8.99166 10.1334 9.05833Z" stroke="#0A0723" stroke-width="1.5" stroke-linecap="round" stroke-linejoin="round"/>
<path d="M5.96672 12.1333C3.95006 13.4833 3.95006 15.6833 5.96672 17.025C8.25839 18.5583 12.0167 18.5583 14.3084 17.025C16.3251 15.675 16.3251 13.475 14.3084 12.1333C12.0251 10.6083 8.26672 10.6083 5.96672 12.1333Z" stroke="#0A0723" stroke-width="1.5" stroke-linecap="round" stroke-linejoin="round"/>
</svg>
